<?xml version="1.0" encoding="UTF-8" standalone="no"?>
<svg width="160px" height="32px" viewBox="0 0 160 32" version="1.1" xmlns="http://www.w3.org/2000/svg" xmlns:xlink="http://www.w3.org/1999/xlink" xmlns:sketch="http://www.bohemiancoding.com/sketch/ns">
    <!-- Generator: Sketch 3.2.2 (9983) - http://www.bohemiancoding.com/sketch -->
    <title>b. Logo</title>
    <desc>Created with Sketch.</desc>
    <defs></defs>
    <g id="C3.0_Footer" stroke="none" stroke-width="1" fill="none" fill-rule="evenodd" sketch:type="MSPage">
        <g sketch:type="MSArtboardGroup" transform="translate(-289.000000, -326.000000)" id="Footer-/-Desktop-/-English">
            <g sketch:type="MSLayerGroup" transform="translate(143.000000, 295.000000)">
                <g id="b.-Logo" transform="translate(146.000000, 31.000000)" sketch:type="MSShapeGroup">
                    <path d="M39.5537966,6.85248045 L39.5537966,21.1553893 C39.5537966,22.4720166 38.9750841,24.4405798 33.6458103,24.4405798 C28.3165366,24.4405798 27.7364022,22.4720166 27.7364022,21.1553893 L27.7364022,6.85248045 L24.7091813,6.85248045 L24.7091813,21.3183733 C24.7091813,24.8600865 27.6539321,26.4034741 33.1197081,26.4034741 C35.9151596,26.4034741 37.9754898,25.9371981 39.521093,25.503519 L39.521093,31.9690233 L42.5013912,31.9690233 L42.4857503,6.85248045 L39.5537966,6.85248045 L39.5537966,6.85248045 Z M12.0926801,0.0269940179 C8.90194099,0.0269940179 4.16844248,0.688850779 4.16844248,3.93435824 L4.16844248,6.85248045 L0.71180839,6.85248045 L0.71180839,8.52625526 L4.16844248,8.52625526 L4.16844248,25.9485361 L7.06627064,25.9485361 L7.06627064,8.52625526 L11.6277195,8.52625526 L11.6291414,6.85248045 L7.06627064,6.85248045 L7.06627064,4.29434029 C7.06627064,1.80281098 9.98400538,1.40598038 12.0926801,1.40598038 C15.5820179,1.40598038 17.3181554,1.66817203 17.3181554,5.47491134 L17.3167335,25.9485361 L20.2131397,25.9485361 L20.2131397,0.487600972 L17.3181554,0.487600972 C15.7043011,0.487600972 14.925101,0.0269940179 12.0926801,0.0269940179 L12.0926801,0.0269940179 Z M156.352766,8.67931849 C154.600987,8.67931849 153.179089,10.1008224 153.179089,11.8511288 C153.179089,13.6042698 154.600987,15.0271909 156.352766,15.0271909 C158.121607,15.0271909 159.536395,13.6042698 159.536395,11.8511288 C159.536395,10.1008224 158.121607,8.67931849 156.352766,8.67931849 L156.352766,8.67931849 Z" id="Fill-5" fill="#FF8200"></path>
                    <path d="M133.227016,11.1748075 C135.479303,10.9197021 137.496976,10.794984 138.768153,10.7907322 C138.068579,8.10220484 134.872152,7.05202098 129.598333,7.05202098 C125.042571,7.05202098 120.977365,8.61950188 120.977365,8.61950188 L120.977365,12.3539613 C120.977365,12.3539613 123.794145,10.0934441 129.676537,10.0934441 C131.603209,10.0934441 132.666788,10.4364192 133.227016,11.1748075 L133.227016,11.1748075 Z M62.9369096,20.5584341 C62.7733913,22.6276223 60.5367457,23.7472515 58.3640855,23.7472515 C53.6576031,23.7472515 52.9978424,21.7078256 52.9978424,17.0493178 C52.9978424,12.3964789 53.9206542,10.3613048 58.1323162,10.3613048 C60.8623604,10.3613048 62.7733913,11.4738477 62.9369096,13.5416186 C63.0677242,15.2139762 63.1359753,16.0685793 63.1359753,17.0493178 C63.1359753,18.0328908 63.0677242,18.9867015 62.9369096,20.5584341 L62.9369096,20.5584341 Z M63.1359753,8.19290897 C61.1922407,7.43893082 59.7134668,7.04493472 57.3090372,7.04493472 C49.9706215,7.04493472 47.732554,9.80290743 47.732554,17.0493178 C47.732554,24.2659658 51.0228261,27.0565353 58.3640855,27.0565353 C62.8373767,27.0565353 66.0892575,25.3884295 68.4012637,25.3884295 L68.4012637,1.1406622 L63.1359753,1.1406622 L63.1359753,8.19290897 L63.1359753,8.19290897 Z M148.590624,7.48853465 L143.325336,7.4899519 L143.325336,10.637669 L148.590624,10.637669 L148.590624,7.48853465 L148.590624,7.48853465 Z M133.841276,20.5116648 C133.841276,23.238458 131.28186,23.9272425 129.52866,23.9272425 C126.538408,23.9272425 125.007024,23.0301219 125.007024,21.0998244 C125.007024,17.8401445 129.201623,16.1635352 133.841276,15.8843365 L133.841276,20.5116648 L133.841276,20.5116648 Z M149.699705,12.4999383 L148.171165,12.5027728 C126.82421,12.5027728 119.906676,16.4540718 119.906676,20.9722718 C119.906676,25.1687554 123.526828,27.009766 129.38647,27.009766 C133.167297,27.009766 136.993624,25.3813432 138.995657,25.3813432 L138.995657,15.2068899 C141.49251,14.89226 143.359462,14.8412389 143.359462,14.8412389 L143.359462,26.6044319 L148.620484,26.6044319 L148.620484,17.7494403 C148.620484,14.5861335 149.699705,12.4999383 149.699705,12.4999383 L149.699705,12.4999383 Z M106.510974,23.7472515 C104.336892,23.7472515 102.101669,22.6276223 101.93815,20.5584341 C101.807336,18.9867015 101.740507,18.0328908 101.740507,17.0493178 C101.740507,16.0685793 101.807336,15.2139762 101.93815,13.5402014 C102.101669,11.4738477 104.014121,10.3613048 106.744166,10.3613048 C110.954406,10.3613048 111.877218,12.3964789 111.877218,17.0493178 C111.877218,21.7078256 111.218879,23.7472515 106.510974,23.7472515 L106.510974,23.7472515 Z M107.564601,7.04493472 C105.161593,7.04493472 103.681397,7.43893082 101.740507,8.19290897 L101.740507,1.1406622 L96.4752182,1.1406622 L96.4752182,25.3884295 C98.7858025,25.3884295 102.034839,27.0565353 106.510974,27.0565353 C113.850812,27.0565353 117.142506,24.2659658 117.142506,17.0493178 C117.142506,9.80290743 114.903017,7.04493472 107.564601,7.04493472 L107.564601,7.04493472 Z M86.8688751,20.6902386 C86.8688751,22.0068658 86.43804,23.9711773 82.4894292,23.9711773 C78.5408184,23.9711773 78.1156709,22.0068658 78.1156709,20.6902386 L78.1156709,7.50554167 L72.8461169,7.50554167 L72.8461169,21.9714345 C72.8475388,25.5131477 76.497551,27.0565353 81.9661708,27.0565353 C86.8020459,27.0565353 89.924534,25.5797585 91.4729809,25.4153573 L92.1313197,25.3473292 L92.1313197,7.50554167 L86.8688751,7.50554167 L86.8688751,20.6902386 L86.8688751,20.6902386 Z" id="Fill-6" fill="#FFFFFF"></path>
                </g>
            </g>
        </g>
    </g>
</svg>